<?xml version="1.0" standalone="no"?>
<!DOCTYPE svg PUBLIC "-//W3C//DTD SVG 20010904//EN"
 "http://www.w3.org/TR/2001/REC-SVG-20010904/DTD/svg10.dtd">
<svg version="1.0" xmlns="http://www.w3.org/2000/svg"
 width="656.000000pt" height="656.000000pt" viewBox="0 0 656.000000 656.000000"
 preserveAspectRatio="xMidYMid meet">
<metadata>
Created by potrace 1.11, written by Peter Selinger 2001-2013
</metadata>
<g transform="translate(0.000000,656.000000) scale(0.100000,-0.100000)"
fill="#000000" stroke="none">
<path d="M0 3280 l0 -3280 3280 0 3280 0 0 3280 0 3280 -3280 0 -3280 0 0
-3280z m2145 1849 c33 -9 86 -57 308 -277 l267 -266 268 266 c222 221 274 268
307 277 22 6 47 11 55 11 8 0 33 -5 55 -11 33 -9 85 -56 307 -277 l268 -266
267 266 c274 272 294 288 368 288 80 0 64 15 898 -818 536 -536 804 -810 817
-838 24 -48 25 -101 5 -152 -11 -26 -252 -273 -803 -825 -433 -433 -802 -798
-821 -809 -40 -25 -140 -30 -181 -9 -14 8 -143 131 -288 274 l-262 262 -268
-267 c-222 -221 -274 -268 -307 -277 -22 -6 -47 -11 -55 -11 -8 0 -33 5 -55
11 -33 9 -85 56 -307 277 l-268 267 -262 -262 c-145 -143 -274 -266 -288 -274
-41 -21 -141 -16 -181 9 -19 11 -388 376 -821 809 -551 552 -792 799 -803 825
-20 51 -19 104 5 152 13 28 281 303 813 834 817 817 821 820 897 822 14 0 43
-5 65 -11z"/>
<path d="M1312 4177 l-772 -772 773 -773 772 -772 250 250 250 250 -472 472
c-260 260 -477 486 -482 501 -14 37 -14 122 0 150 6 12 223 235 483 495 l471
472 -250 250 -250 250 -773 -773z"/>
<path d="M3100 4705 l-250 -250 250 -250 250 -250 250 250 250 250 -250 250
-249 249 -251 -249z"/>
<path d="M4365 4700 l-250 -250 472 -473 c259 -259 476 -482 482 -494 17 -34
14 -134 -5 -163 -9 -14 -226 -235 -483 -493 l-466 -467 250 -250 250 -250 773
773 772 772 -773 773 -772 772 -250 -250z"/>
<path d="M2261 3866 l-454 -454 449 -456 c247 -251 453 -456 459 -456 6 0 120
110 255 245 l244 244 -152 155 c-155 156 -182 196 -182 261 0 67 27 106 183
262 l152 153 -250 250 -250 250 -454 -454z"/>
<path d="M3735 4070 l-250 -250 152 -153 c156 -156 183 -195 183 -262 0 -65
-27 -105 -182 -261 l-152 -155 244 -244 c135 -135 249 -245 255 -245 13 0 905
892 905 905 0 6 -204 214 -453 463 l-452 452 -250 -250z"/>
<path d="M3207 3542 l-137 -137 140 -140 140 -140 140 140 140 140 -137 137
c-76 76 -140 138 -143 138 -3 0 -67 -62 -143 -138z"/>
<path d="M3097 2602 l-247 -247 248 -248 247 -247 250 250 250 250 -245 245
c-135 135 -247 245 -250 245 -3 0 -116 -111 -253 -248z"/>
</g>
</svg>
